<?xml version="1.0" encoding="utf-8" standalone="no"?>
<!DOCTYPE svg PUBLIC "-//W3C//DTD SVG 1.1//EN"
  "http://www.w3.org/Graphics/SVG/1.1/DTD/svg11.dtd">
<!-- Created with matplotlib (https://matplotlib.org/) -->
<svg height="302.878125pt" version="1.1" viewBox="0 0 592.125 302.878125" width="592.125pt" xmlns="http://www.w3.org/2000/svg" xmlns:xlink="http://www.w3.org/1999/xlink">
 <metadata>
  <rdf:RDF xmlns:cc="http://creativecommons.org/ns#" xmlns:dc="http://purl.org/dc/elements/1.1/" xmlns:rdf="http://www.w3.org/1999/02/22-rdf-syntax-ns#">
   <cc:Work>
    <dc:type rdf:resource="http://purl.org/dc/dcmitype/StillImage"/>
    <dc:date>2021-03-18T19:37:14.978376</dc:date>
    <dc:format>image/svg+xml</dc:format>
    <dc:creator>
     <cc:Agent>
      <dc:title>Matplotlib v3.3.4, https://matplotlib.org/</dc:title>
     </cc:Agent>
    </dc:creator>
   </cc:Work>
  </rdf:RDF>
 </metadata>
 <defs>
  <style type="text/css">*{stroke-linecap:butt;stroke-linejoin:round;}</style>
 </defs>
 <g id="figure_1">
  <g id="patch_1">
   <path d="M 0 302.878125 
L 592.125 302.878125 
L 592.125 0 
L 0 0 
z
" style="fill:none;"/>
  </g>
  <g id="axes_1">
   <g id="patch_2">
    <path d="M 26.925 279 
L 584.925 279 
L 584.925 7.2 
L 26.925 7.2 
z
" style="fill:#ffffff;"/>
   </g>
   <g id="matplotlib.axis_1">
    <g id="xtick_1">
     <g id="line2d_1">
      <defs>
       <path d="M 0 0 
L 0 3.5 
" id="m62c5028bc4" style="stroke:#000000;stroke-width:0.8;"/>
      </defs>
      <g>
       <use style="stroke:#000000;stroke-width:0.8;" x="52.288636" xlink:href="#m62c5028bc4" y="279"/>
      </g>
     </g>
     <g id="text_1">
      <!-- 0 -->
      <g transform="translate(49.107386 293.598437)scale(0.1 -0.1)">
       <defs>
        <path d="M 31.78125 66.40625 
Q 24.171875 66.40625 20.328125 58.90625 
Q 16.5 51.421875 16.5 36.375 
Q 16.5 21.390625 20.328125 13.890625 
Q 24.171875 6.390625 31.78125 6.390625 
Q 39.453125 6.390625 43.28125 13.890625 
Q 47.125 21.390625 47.125 36.375 
Q 47.125 51.421875 43.28125 58.90625 
Q 39.453125 66.40625 31.78125 66.40625 
z
M 31.78125 74.21875 
Q 44.046875 74.21875 50.515625 64.515625 
Q 56.984375 54.828125 56.984375 36.375 
Q 56.984375 17.96875 50.515625 8.265625 
Q 44.046875 -1.421875 31.78125 -1.421875 
Q 19.53125 -1.421875 13.0625 8.265625 
Q 6.59375 17.96875 6.59375 36.375 
Q 6.59375 54.828125 13.0625 64.515625 
Q 19.53125 74.21875 31.78125 74.21875 
z
" id="DejaVuSans-48"/>
       </defs>
       <use xlink:href="#DejaVuSans-48"/>
      </g>
     </g>
    </g>
    <g id="xtick_2">
     <g id="line2d_2">
      <g>
       <use style="stroke:#000000;stroke-width:0.8;" x="154.767975" xlink:href="#m62c5028bc4" y="279"/>
      </g>
     </g>
     <g id="text_2">
      <!-- 20 -->
      <g transform="translate(148.405475 293.598437)scale(0.1 -0.1)">
       <defs>
        <path d="M 19.1875 8.296875 
L 53.609375 8.296875 
L 53.609375 0 
L 7.328125 0 
L 7.328125 8.296875 
Q 12.9375 14.109375 22.625 23.890625 
Q 32.328125 33.6875 34.8125 36.53125 
Q 39.546875 41.84375 41.421875 45.53125 
Q 43.3125 49.21875 43.3125 52.78125 
Q 43.3125 58.59375 39.234375 62.25 
Q 35.15625 65.921875 28.609375 65.921875 
Q 23.96875 65.921875 18.8125 64.3125 
Q 13.671875 62.703125 7.8125 59.421875 
L 7.8125 69.390625 
Q 13.765625 71.78125 18.9375 73 
Q 24.125 74.21875 28.421875 74.21875 
Q 39.75 74.21875 46.484375 68.546875 
Q 53.21875 62.890625 53.21875 53.421875 
Q 53.21875 48.921875 51.53125 44.890625 
Q 49.859375 40.875 45.40625 35.40625 
Q 44.1875 33.984375 37.640625 27.21875 
Q 31.109375 20.453125 19.1875 8.296875 
z
" id="DejaVuSans-50"/>
       </defs>
       <use xlink:href="#DejaVuSans-50"/>
       <use x="63.623047" xlink:href="#DejaVuSans-48"/>
      </g>
     </g>
    </g>
    <g id="xtick_3">
     <g id="line2d_3">
      <g>
       <use style="stroke:#000000;stroke-width:0.8;" x="257.247314" xlink:href="#m62c5028bc4" y="279"/>
      </g>
     </g>
     <g id="text_3">
      <!-- 40 -->
      <g transform="translate(250.884814 293.598437)scale(0.1 -0.1)">
       <defs>
        <path d="M 37.796875 64.3125 
L 12.890625 25.390625 
L 37.796875 25.390625 
z
M 35.203125 72.90625 
L 47.609375 72.90625 
L 47.609375 25.390625 
L 58.015625 25.390625 
L 58.015625 17.1875 
L 47.609375 17.1875 
L 47.609375 0 
L 37.796875 0 
L 37.796875 17.1875 
L 4.890625 17.1875 
L 4.890625 26.703125 
z
" id="DejaVuSans-52"/>
       </defs>
       <use xlink:href="#DejaVuSans-52"/>
       <use x="63.623047" xlink:href="#DejaVuSans-48"/>
      </g>
     </g>
    </g>
    <g id="xtick_4">
     <g id="line2d_4">
      <g>
       <use style="stroke:#000000;stroke-width:0.8;" x="359.726653" xlink:href="#m62c5028bc4" y="279"/>
      </g>
     </g>
     <g id="text_4">
      <!-- 60 -->
      <g transform="translate(353.364153 293.598437)scale(0.1 -0.1)">
       <defs>
        <path d="M 33.015625 40.375 
Q 26.375 40.375 22.484375 35.828125 
Q 18.609375 31.296875 18.609375 23.390625 
Q 18.609375 15.53125 22.484375 10.953125 
Q 26.375 6.390625 33.015625 6.390625 
Q 39.65625 6.390625 43.53125 10.953125 
Q 47.40625 15.53125 47.40625 23.390625 
Q 47.40625 31.296875 43.53125 35.828125 
Q 39.65625 40.375 33.015625 40.375 
z
M 52.59375 71.296875 
L 52.59375 62.3125 
Q 48.875 64.0625 45.09375 64.984375 
Q 41.3125 65.921875 37.59375 65.921875 
Q 27.828125 65.921875 22.671875 59.328125 
Q 17.53125 52.734375 16.796875 39.40625 
Q 19.671875 43.65625 24.015625 45.921875 
Q 28.375 48.1875 33.59375 48.1875 
Q 44.578125 48.1875 50.953125 41.515625 
Q 57.328125 34.859375 57.328125 23.390625 
Q 57.328125 12.15625 50.6875 5.359375 
Q 44.046875 -1.421875 33.015625 -1.421875 
Q 20.359375 -1.421875 13.671875 8.265625 
Q 6.984375 17.96875 6.984375 36.375 
Q 6.984375 53.65625 15.1875 63.9375 
Q 23.390625 74.21875 37.203125 74.21875 
Q 40.921875 74.21875 44.703125 73.484375 
Q 48.484375 72.75 52.59375 71.296875 
z
" id="DejaVuSans-54"/>
       </defs>
       <use xlink:href="#DejaVuSans-54"/>
       <use x="63.623047" xlink:href="#DejaVuSans-48"/>
      </g>
     </g>
    </g>
    <g id="xtick_5">
     <g id="line2d_5">
      <g>
       <use style="stroke:#000000;stroke-width:0.8;" x="462.205992" xlink:href="#m62c5028bc4" y="279"/>
      </g>
     </g>
     <g id="text_5">
      <!-- 80 -->
      <g transform="translate(455.843492 293.598437)scale(0.1 -0.1)">
       <defs>
        <path d="M 31.78125 34.625 
Q 24.75 34.625 20.71875 30.859375 
Q 16.703125 27.09375 16.703125 20.515625 
Q 16.703125 13.921875 20.71875 10.15625 
Q 24.75 6.390625 31.78125 6.390625 
Q 38.8125 6.390625 42.859375 10.171875 
Q 46.921875 13.96875 46.921875 20.515625 
Q 46.921875 27.09375 42.890625 30.859375 
Q 38.875 34.625 31.78125 34.625 
z
M 21.921875 38.8125 
Q 15.578125 40.375 12.03125 44.71875 
Q 8.5 49.078125 8.5 55.328125 
Q 8.5 64.0625 14.71875 69.140625 
Q 20.953125 74.21875 31.78125 74.21875 
Q 42.671875 74.21875 48.875 69.140625 
Q 55.078125 64.0625 55.078125 55.328125 
Q 55.078125 49.078125 51.53125 44.71875 
Q 48 40.375 41.703125 38.8125 
Q 48.828125 37.15625 52.796875 32.3125 
Q 56.78125 27.484375 56.78125 20.515625 
Q 56.78125 9.90625 50.3125 4.234375 
Q 43.84375 -1.421875 31.78125 -1.421875 
Q 19.734375 -1.421875 13.25 4.234375 
Q 6.78125 9.90625 6.78125 20.515625 
Q 6.78125 27.484375 10.78125 32.3125 
Q 14.796875 37.15625 21.921875 38.8125 
z
M 18.3125 54.390625 
Q 18.3125 48.734375 21.84375 45.5625 
Q 25.390625 42.390625 31.78125 42.390625 
Q 38.140625 42.390625 41.71875 45.5625 
Q 45.3125 48.734375 45.3125 54.390625 
Q 45.3125 60.0625 41.71875 63.234375 
Q 38.140625 66.40625 31.78125 66.40625 
Q 25.390625 66.40625 21.84375 63.234375 
Q 18.3125 60.0625 18.3125 54.390625 
z
" id="DejaVuSans-56"/>
       </defs>
       <use xlink:href="#DejaVuSans-56"/>
       <use x="63.623047" xlink:href="#DejaVuSans-48"/>
      </g>
     </g>
    </g>
    <g id="xtick_6">
     <g id="line2d_6">
      <g>
       <use style="stroke:#000000;stroke-width:0.8;" x="564.685331" xlink:href="#m62c5028bc4" y="279"/>
      </g>
     </g>
     <g id="text_6">
      <!-- 100 -->
      <g transform="translate(555.141581 293.598437)scale(0.1 -0.1)">
       <defs>
        <path d="M 12.40625 8.296875 
L 28.515625 8.296875 
L 28.515625 63.921875 
L 10.984375 60.40625 
L 10.984375 69.390625 
L 28.421875 72.90625 
L 38.28125 72.90625 
L 38.28125 8.296875 
L 54.390625 8.296875 
L 54.390625 0 
L 12.40625 0 
z
" id="DejaVuSans-49"/>
       </defs>
       <use xlink:href="#DejaVuSans-49"/>
       <use x="63.623047" xlink:href="#DejaVuSans-48"/>
       <use x="127.246094" xlink:href="#DejaVuSans-48"/>
      </g>
     </g>
    </g>
   </g>
   <g id="matplotlib.axis_2">
    <g id="ytick_1">
     <g id="line2d_7">
      <defs>
       <path d="M 0 0 
L -3.5 0 
" id="m91db95cddd" style="stroke:#000000;stroke-width:0.8;"/>
      </defs>
      <g>
       <use style="stroke:#000000;stroke-width:0.8;" x="26.925" xlink:href="#m91db95cddd" y="262.612699"/>
      </g>
     </g>
     <g id="text_7">
      <!-- 0 -->
      <g transform="translate(13.5625 266.411918)scale(0.1 -0.1)">
       <use xlink:href="#DejaVuSans-48"/>
      </g>
     </g>
    </g>
    <g id="ytick_2">
     <g id="line2d_8">
      <g>
       <use style="stroke:#000000;stroke-width:0.8;" x="26.925" xlink:href="#m91db95cddd" y="203.18147"/>
      </g>
     </g>
     <g id="text_8">
      <!-- 5 -->
      <g transform="translate(13.5625 206.980689)scale(0.1 -0.1)">
       <defs>
        <path d="M 10.796875 72.90625 
L 49.515625 72.90625 
L 49.515625 64.59375 
L 19.828125 64.59375 
L 19.828125 46.734375 
Q 21.96875 47.46875 24.109375 47.828125 
Q 26.265625 48.1875 28.421875 48.1875 
Q 40.625 48.1875 47.75 41.5 
Q 54.890625 34.8125 54.890625 23.390625 
Q 54.890625 11.625 47.5625 5.09375 
Q 40.234375 -1.421875 26.90625 -1.421875 
Q 22.3125 -1.421875 17.546875 -0.640625 
Q 12.796875 0.140625 7.71875 1.703125 
L 7.71875 11.625 
Q 12.109375 9.234375 16.796875 8.0625 
Q 21.484375 6.890625 26.703125 6.890625 
Q 35.15625 6.890625 40.078125 11.328125 
Q 45.015625 15.765625 45.015625 23.390625 
Q 45.015625 31 40.078125 35.4375 
Q 35.15625 39.890625 26.703125 39.890625 
Q 22.75 39.890625 18.8125 39.015625 
Q 14.890625 38.140625 10.796875 36.28125 
z
" id="DejaVuSans-53"/>
       </defs>
       <use xlink:href="#DejaVuSans-53"/>
      </g>
     </g>
    </g>
    <g id="ytick_3">
     <g id="line2d_9">
      <g>
       <use style="stroke:#000000;stroke-width:0.8;" x="26.925" xlink:href="#m91db95cddd" y="143.750241"/>
      </g>
     </g>
     <g id="text_9">
      <!-- 10 -->
      <g transform="translate(7.2 147.54946)scale(0.1 -0.1)">
       <use xlink:href="#DejaVuSans-49"/>
       <use x="63.623047" xlink:href="#DejaVuSans-48"/>
      </g>
     </g>
    </g>
    <g id="ytick_4">
     <g id="line2d_10">
      <g>
       <use style="stroke:#000000;stroke-width:0.8;" x="26.925" xlink:href="#m91db95cddd" y="84.319012"/>
      </g>
     </g>
     <g id="text_10">
      <!-- 15 -->
      <g transform="translate(7.2 88.118231)scale(0.1 -0.1)">
       <use xlink:href="#DejaVuSans-49"/>
       <use x="63.623047" xlink:href="#DejaVuSans-53"/>
      </g>
     </g>
    </g>
    <g id="ytick_5">
     <g id="line2d_11">
      <g>
       <use style="stroke:#000000;stroke-width:0.8;" x="26.925" xlink:href="#m91db95cddd" y="24.887783"/>
      </g>
     </g>
     <g id="text_11">
      <!-- 20 -->
      <g transform="translate(7.2 28.687001)scale(0.1 -0.1)">
       <use xlink:href="#DejaVuSans-50"/>
       <use x="63.623047" xlink:href="#DejaVuSans-48"/>
      </g>
     </g>
    </g>
   </g>
   <g id="line2d_12">
    <path clip-path="url(#pc0be45294d)" d="M 52.288636 238.254165 
L 57.412603 240.15209 
L 62.53657 243.60956 
L 67.660537 229.32711 
L 72.784504 257.285157 
L 77.908471 254.947207 
L 83.032438 236.134398 
L 88.156405 237.109305 
L 93.280372 257.915745 
L 98.404339 262.666691 
L 103.528306 225.504156 
L 108.652273 250.925781 
L 113.77624 237.593202 
L 118.900207 246.274208 
L 124.024174 237.645044 
L 129.14814 229.106078 
L 134.272107 258.769559 
L 139.396074 225.280539 
L 144.520041 227.89449 
L 149.644008 241.720647 
L 154.767975 255.15504 
L 159.891942 230.824845 
L 165.015909 247.908821 
L 170.139876 248.229948 
L 175.263843 242.543831 
L 180.38781 254.600836 
L 185.511777 255.436492 
L 190.635744 257.1007 
L 195.759711 224.234736 
L 200.883678 245.429959 
L 206.007645 238.928465 
L 211.131612 232.591792 
L 216.255579 228.360316 
L 221.379545 259.406539 
L 226.503512 237.918508 
L 231.627479 241.957943 
L 236.751446 226.415837 
L 241.875413 218.498791 
L 246.99938 227.305993 
L 252.123347 235.892119 
L 257.247314 224.617172 
L 262.371281 238.143011 
L 267.495248 236.770296 
L 272.619215 226.581782 
L 277.743182 266.645455 
L 282.867149 244.907437 
L 287.991116 229.659095 
L 293.115083 229.727614 
L 298.23905 226.704499 
L 303.363017 203.68235 
L 308.486983 220.397188 
L 313.61095 220.877781 
L 318.734917 205.200341 
L 323.858884 203.362428 
L 328.982851 234.078783 
L 334.106818 210.103993 
L 339.230785 210.982955 
L 344.354752 209.365858 
L 349.478719 231.438149 
L 354.602686 190.824432 
L 359.726653 221.797735 
L 364.85062 194.319496 
L 369.974587 215.361796 
L 375.098554 229.178086 
L 380.222521 211.342627 
L 385.346488 202.821235 
L 390.470455 215.792801 
L 395.594421 201.447508 
L 400.718388 218.166192 
L 405.842355 223.84608 
L 410.966322 205.284945 
L 416.090289 199.612637 
L 421.214256 212.140989 
L 426.338223 196.349016 
L 431.46219 207.494208 
L 436.586157 193.998265 
L 441.710124 198.737676 
L 446.834091 175.501425 
L 451.958058 183.972164 
L 457.082025 196.875047 
L 462.205992 201.906117 
L 467.329959 180.460152 
L 472.453926 185.737902 
L 477.577893 173.123364 
L 482.70186 192.050154 
L 487.825826 173.63994 
L 492.949793 173.658633 
L 498.07376 186.915913 
L 503.197727 181.266692 
L 508.321694 168.955831 
L 513.445661 173.297776 
L 518.569628 163.745345 
L 523.693595 168.826054 
L 528.817562 150.657447 
L 533.941529 151.281027 
L 539.065496 144.484966 
L 544.189463 150.655609 
L 549.31343 176.042776 
L 554.437397 134.706909 
L 559.561364 158.891128 
" style="fill:none;stroke:#3b4cc0;stroke-linecap:square;stroke-width:1.5;"/>
   </g>
   <g id="line2d_13">
    <path clip-path="url(#pc0be45294d)" d="M 52.288636 255.33519 
L 57.412603 236.71552 
L 62.53657 237.398546 
L 67.660537 225.748515 
L 72.784504 245.530771 
L 77.908471 244.730396 
L 83.032438 239.313043 
L 88.156405 243.228885 
L 93.280372 217.084711 
L 98.404339 237.291418 
L 103.528306 252.725091 
L 108.652273 224.969759 
L 113.77624 236.817146 
L 118.900207 239.041339 
L 124.024174 234.099141 
L 129.14814 234.848733 
L 134.272107 220.496092 
L 139.396074 226.802403 
L 144.520041 211.95841 
L 149.644008 238.729052 
L 154.767975 212.100306 
L 159.891942 223.347903 
L 165.015909 231.907525 
L 170.139876 250.073325 
L 175.263843 222.305345 
L 180.38781 240.334065 
L 185.511777 224.807108 
L 190.635744 227.287905 
L 195.759711 216.992773 
L 200.883678 222.445643 
L 206.007645 218.662929 
L 211.131612 226.671032 
L 216.255579 219.258228 
L 221.379545 225.188297 
L 226.503512 240.701765 
L 231.627479 227.672266 
L 236.751446 250.924179 
L 241.875413 212.166952 
L 246.99938 230.113689 
L 252.123347 235.478256 
L 257.247314 235.093999 
L 262.371281 229.997544 
L 267.495248 211.147302 
L 272.619215 210.854946 
L 277.743182 207.723986 
L 282.867149 214.710787 
L 287.991116 201.430106 
L 293.115083 227.110796 
L 298.23905 223.986945 
L 303.363017 191.783206 
L 308.486983 211.700184 
L 313.61095 217.346038 
L 318.734917 216.341788 
L 323.858884 217.36444 
L 328.982851 201.323358 
L 334.106818 230.017843 
L 339.230785 196.980153 
L 344.354752 192.973532 
L 349.478719 199.495493 
L 354.602686 200.598151 
L 359.726653 225.525274 
L 364.85062 199.674891 
L 369.974587 189.516092 
L 375.098554 207.205133 
L 380.222521 198.617633 
L 385.346488 204.119206 
L 390.470455 200.011945 
L 395.594421 188.11267 
L 400.718388 186.522706 
L 405.842355 191.550202 
L 410.966322 191.457451 
L 416.090289 180.545836 
L 421.214256 169.69222 
L 426.338223 175.03801 
L 431.46219 164.89647 
L 436.586157 182.078781 
L 441.710124 201.052001 
L 446.834091 183.108025 
L 451.958058 179.713548 
L 457.082025 162.675818 
L 462.205992 174.651337 
L 467.329959 172.178064 
L 472.453926 180.653857 
L 477.577893 180.657 
L 482.70186 164.531491 
L 487.825826 183.524162 
L 492.949793 161.965498 
L 498.07376 158.083543 
L 503.197727 144.854361 
L 508.321694 156.368804 
L 513.445661 167.765115 
L 518.569628 160.347532 
L 523.693595 164.976617 
L 528.817562 159.640513 
L 533.941529 134.706323 
L 539.065496 155.83829 
L 544.189463 134.822123 
L 549.31343 125.188372 
L 554.437397 171.903118 
L 559.561364 137.712392 
" style="fill:none;stroke:#5d7ce6;stroke-linecap:square;stroke-width:1.5;"/>
   </g>
   <g id="line2d_14">
    <path clip-path="url(#pc0be45294d)" d="M 52.288636 207.815294 
L 57.412603 221.040452 
L 62.53657 253.863416 
L 67.660537 231.481599 
L 72.784504 235.680495 
L 77.908471 228.615724 
L 83.032438 228.185585 
L 88.156405 223.608543 
L 93.280372 228.545934 
L 98.404339 237.832026 
L 103.528306 230.114099 
L 108.652273 224.924516 
L 113.77624 221.055686 
L 118.900207 230.351629 
L 124.024174 223.390371 
L 129.14814 202.65407 
L 134.272107 212.924186 
L 139.396074 216.585154 
L 144.520041 219.156755 
L 149.644008 218.463978 
L 154.767975 220.95238 
L 159.891942 228.15947 
L 165.015909 204.194036 
L 170.139876 210.07911 
L 175.263843 232.006031 
L 180.38781 212.362393 
L 185.511777 223.32818 
L 190.635744 211.193225 
L 195.759711 206.184438 
L 200.883678 190.511171 
L 206.007645 208.883621 
L 211.131612 188.947192 
L 216.255579 221.109832 
L 221.379545 188.793296 
L 226.503512 212.920208 
L 231.627479 192.00963 
L 236.751446 198.201233 
L 241.875413 199.380283 
L 246.99938 215.319428 
L 252.123347 214.899147 
L 257.247314 195.711556 
L 262.371281 224.359023 
L 267.495248 204.676056 
L 272.619215 232.575057 
L 277.743182 195.05029 
L 282.867149 182.220973 
L 287.991116 192.477015 
L 293.115083 201.082435 
L 298.23905 207.188886 
L 303.363017 210.914495 
L 308.486983 204.581074 
L 313.61095 199.641081 
L 318.734917 192.446097 
L 323.858884 180.685619 
L 328.982851 181.099434 
L 334.106818 200.594266 
L 339.230785 196.706602 
L 344.354752 178.925524 
L 349.478719 188.423167 
L 354.602686 210.533573 
L 359.726653 184.875579 
L 364.85062 205.831519 
L 369.974587 173.948449 
L 375.098554 199.448968 
L 380.222521 183.507044 
L 385.346488 186.769287 
L 390.470455 207.590848 
L 395.594421 162.613792 
L 400.718388 169.782799 
L 405.842355 210.291167 
L 410.966322 173.595905 
L 416.090289 179.752009 
L 421.214256 166.574651 
L 426.338223 173.657369 
L 431.46219 150.737795 
L 436.586157 190.291729 
L 441.710124 168.094282 
L 446.834091 169.644533 
L 451.958058 159.308449 
L 457.082025 159.160502 
L 462.205992 172.06089 
L 467.329959 175.546816 
L 472.453926 149.507255 
L 477.577893 170.202891 
L 482.70186 165.091335 
L 487.825826 150.190697 
L 492.949793 148.531584 
L 498.07376 148.4976 
L 503.197727 149.85432 
L 508.321694 151.556309 
L 513.445661 142.044755 
L 518.569628 143.156975 
L 523.693595 142.950104 
L 528.817562 128.839275 
L 533.941529 125.85902 
L 539.065496 135.511486 
L 544.189463 108.491783 
L 549.31343 115.200507 
L 554.437397 116.705474 
L 559.561364 118.984108 
" style="fill:none;stroke:#82a6fb;stroke-linecap:square;stroke-width:1.5;"/>
   </g>
   <g id="line2d_15">
    <path clip-path="url(#pc0be45294d)" d="M 52.288636 211.757222 
L 57.412603 215.621368 
L 62.53657 214.932761 
L 67.660537 241.028219 
L 72.784504 231.229269 
L 77.908471 218.81983 
L 83.032438 213.542048 
L 88.156405 223.830212 
L 93.280372 200.193074 
L 98.404339 208.771519 
L 103.528306 224.296347 
L 108.652273 214.305892 
L 113.77624 200.492165 
L 118.900207 228.459894 
L 124.024174 215.723969 
L 129.14814 191.00863 
L 134.272107 221.928263 
L 139.396074 220.791714 
L 144.520041 200.061899 
L 149.644008 188.730459 
L 154.767975 230.350584 
L 159.891942 206.000143 
L 165.015909 205.354401 
L 170.139876 196.472285 
L 175.263843 198.26012 
L 180.38781 203.28041 
L 185.511777 208.615815 
L 190.635744 190.327743 
L 195.759711 207.418002 
L 200.883678 189.218442 
L 206.007645 186.170064 
L 211.131612 210.847311 
L 216.255579 203.090607 
L 221.379545 202.84045 
L 226.503512 189.987573 
L 231.627479 191.262797 
L 236.751446 222.238474 
L 241.875413 213.152804 
L 246.99938 193.265032 
L 252.123347 214.482874 
L 257.247314 183.427132 
L 262.371281 183.350672 
L 267.495248 204.947125 
L 272.619215 177.933293 
L 277.743182 205.021053 
L 282.867149 188.420504 
L 287.991116 163.810463 
L 293.115083 209.377846 
L 298.23905 206.960644 
L 303.363017 185.513844 
L 308.486983 197.844851 
L 313.61095 183.712071 
L 318.734917 219.768779 
L 323.858884 179.965979 
L 328.982851 172.781012 
L 334.106818 171.834586 
L 339.230785 187.912442 
L 344.354752 174.171768 
L 349.478719 179.152205 
L 354.602686 169.426206 
L 359.726653 180.953997 
L 364.85062 167.769167 
L 369.974587 179.128305 
L 375.098554 162.064319 
L 380.222521 180.78894 
L 385.346488 175.170699 
L 390.470455 172.276097 
L 395.594421 177.878995 
L 400.718388 170.138134 
L 405.842355 167.029827 
L 410.966322 160.172435 
L 416.090289 146.604451 
L 421.214256 171.761768 
L 426.338223 162.926213 
L 431.46219 140.277563 
L 436.586157 168.713433 
L 441.710124 168.100067 
L 446.834091 154.887014 
L 451.958058 160.044848 
L 457.082025 122.288338 
L 462.205992 154.638713 
L 467.329959 145.735975 
L 472.453926 133.970186 
L 477.577893 152.009761 
L 482.70186 128.85121 
L 487.825826 152.346833 
L 492.949793 157.839867 
L 498.07376 128.332331 
L 503.197727 145.452695 
L 508.321694 151.252901 
L 513.445661 132.387532 
L 518.569628 119.203989 
L 523.693595 146.601364 
L 528.817562 135.635146 
L 533.941529 117.503743 
L 539.065496 109.502337 
L 544.189463 93.360863 
L 549.31343 113.190011 
L 554.437397 111.974363 
L 559.561364 117.376481 
" style="fill:none;stroke:#aac7fd;stroke-linecap:square;stroke-width:1.5;"/>
   </g>
   <g id="line2d_16">
    <path clip-path="url(#pc0be45294d)" d="M 52.288636 201.73282 
L 57.412603 190.545634 
L 62.53657 201.093162 
L 67.660537 188.484093 
L 72.784504 198.370154 
L 77.908471 215.210508 
L 83.032438 202.368629 
L 88.156405 204.676582 
L 93.280372 209.943337 
L 98.404339 202.048491 
L 103.528306 207.435788 
L 108.652273 199.124272 
L 113.77624 212.683641 
L 118.900207 189.483667 
L 124.024174 194.449342 
L 129.14814 191.482645 
L 134.272107 186.15929 
L 139.396074 206.979073 
L 144.520041 191.809986 
L 149.644008 195.641431 
L 154.767975 209.037589 
L 159.891942 162.401783 
L 165.015909 206.522612 
L 170.139876 201.185775 
L 175.263843 171.582495 
L 180.38781 186.866532 
L 185.511777 195.695463 
L 190.635744 198.517391 
L 195.759711 190.458256 
L 200.883678 186.142418 
L 206.007645 193.43211 
L 211.131612 194.862554 
L 216.255579 209.384218 
L 221.379545 194.189978 
L 226.503512 173.620282 
L 231.627479 187.602073 
L 236.751446 201.214912 
L 241.875413 197.247902 
L 246.99938 209.194451 
L 252.123347 183.835741 
L 257.247314 179.631532 
L 262.371281 190.612286 
L 267.495248 162.085376 
L 272.619215 184.438716 
L 277.743182 199.929044 
L 282.867149 202.606453 
L 287.991116 188.667712 
L 293.115083 181.799642 
L 298.23905 162.026025 
L 303.363017 210.727967 
L 308.486983 178.24115 
L 313.61095 169.495688 
L 318.734917 174.037323 
L 323.858884 181.942127 
L 328.982851 185.127986 
L 334.106818 168.710446 
L 339.230785 187.49 
L 344.354752 160.554898 
L 349.478719 181.348551 
L 354.602686 149.906281 
L 359.726653 160.494894 
L 364.85062 174.213342 
L 369.974587 153.400003 
L 375.098554 157.92628 
L 380.222521 170.21104 
L 385.346488 168.937196 
L 390.470455 139.375529 
L 395.594421 176.134026 
L 400.718388 153.73946 
L 405.842355 170.550953 
L 410.966322 158.07891 
L 416.090289 159.16535 
L 421.214256 161.804886 
L 426.338223 149.555 
L 431.46219 124.487826 
L 436.586157 141.647954 
L 441.710124 137.804564 
L 446.834091 122.970172 
L 451.958058 149.400548 
L 457.082025 131.171983 
L 462.205992 119.507647 
L 467.329959 144.011137 
L 472.453926 129.79537 
L 477.577893 127.324476 
L 482.70186 141.565118 
L 487.825826 127.577294 
L 492.949793 130.519348 
L 498.07376 102.623882 
L 503.197727 135.036642 
L 508.321694 104.214688 
L 513.445661 116.407426 
L 518.569628 101.34271 
L 523.693595 119.981021 
L 528.817562 116.199075 
L 533.941529 117.557134 
L 539.065496 99.776118 
L 544.189463 102.556448 
L 549.31343 105.148472 
L 554.437397 90.053384 
L 559.561364 91.93963 
" style="fill:none;stroke:#cdd9ec;stroke-linecap:square;stroke-width:1.5;"/>
   </g>
   <g id="line2d_17">
    <path clip-path="url(#pc0be45294d)" d="M 52.288636 178.961398 
L 57.412603 179.570301 
L 62.53657 185.23681 
L 67.660537 171.119184 
L 72.784504 182.610695 
L 77.908471 205.897079 
L 83.032438 177.610718 
L 88.156405 185.393858 
L 93.280372 182.134905 
L 98.404339 179.437283 
L 103.528306 179.129979 
L 108.652273 185.81115 
L 113.77624 191.973051 
L 118.900207 174.512932 
L 124.024174 184.437476 
L 129.14814 197.039742 
L 134.272107 183.721545 
L 139.396074 183.723052 
L 144.520041 167.568693 
L 149.644008 175.182146 
L 154.767975 197.767661 
L 159.891942 177.675824 
L 165.015909 183.881297 
L 170.139876 193.52496 
L 175.263843 170.587863 
L 180.38781 189.637745 
L 185.511777 207.960059 
L 190.635744 156.073141 
L 195.759711 172.113359 
L 200.883678 167.315457 
L 206.007645 161.738789 
L 211.131612 153.157267 
L 216.255579 179.148995 
L 221.379545 172.396658 
L 226.503512 174.368571 
L 231.627479 219.184004 
L 236.751446 190.97813 
L 241.875413 181.338614 
L 246.99938 168.86065 
L 252.123347 167.763423 
L 257.247314 158.475832 
L 262.371281 167.094833 
L 267.495248 153.986317 
L 272.619215 173.625283 
L 277.743182 173.752761 
L 282.867149 153.577799 
L 287.991116 156.979328 
L 293.115083 156.58794 
L 298.23905 166.792022 
L 303.363017 170.992904 
L 308.486983 168.279401 
L 313.61095 141.454444 
L 318.734917 172.103956 
L 323.858884 156.909938 
L 328.982851 159.339495 
L 334.106818 175.392181 
L 339.230785 155.598344 
L 344.354752 149.493736 
L 349.478719 155.800948 
L 354.602686 159.870368 
L 359.726653 143.314358 
L 364.85062 147.366217 
L 369.974587 138.610814 
L 375.098554 149.686203 
L 380.222521 146.36461 
L 385.346488 142.706247 
L 390.470455 159.029752 
L 395.594421 137.460086 
L 400.718388 138.005739 
L 405.842355 144.206539 
L 410.966322 146.503052 
L 416.090289 149.636785 
L 421.214256 153.523725 
L 426.338223 121.379124 
L 431.46219 138.128595 
L 436.586157 125.824584 
L 441.710124 118.148923 
L 446.834091 113.134864 
L 451.958058 98.259748 
L 457.082025 124.006926 
L 462.205992 135.465382 
L 467.329959 128.30113 
L 472.453926 129.305765 
L 477.577893 117.012715 
L 482.70186 120.20483 
L 487.825826 110.796554 
L 492.949793 87.12995 
L 498.07376 130.399383 
L 503.197727 109.701563 
L 508.321694 99.00546 
L 513.445661 118.439862 
L 518.569628 115.335858 
L 523.693595 107.474931 
L 528.817562 104.319028 
L 533.941529 99.464637 
L 539.065496 100.239195 
L 544.189463 93.995392 
L 549.31343 93.076221 
L 554.437397 97.931066 
L 559.561364 59.34726 
" style="fill:none;stroke:#ead4c8;stroke-linecap:square;stroke-width:1.5;"/>
   </g>
   <g id="line2d_18">
    <path clip-path="url(#pc0be45294d)" d="M 52.288636 162.823437 
L 57.412603 156.75758 
L 62.53657 178.494785 
L 67.660537 183.04569 
L 72.784504 161.23411 
L 77.908471 184.371084 
L 83.032438 168.673471 
L 88.156405 178.797813 
L 93.280372 177.833973 
L 98.404339 165.227511 
L 103.528306 192.860749 
L 108.652273 167.128215 
L 113.77624 164.993344 
L 118.900207 167.230624 
L 124.024174 153.221756 
L 129.14814 172.522008 
L 134.272107 180.758057 
L 139.396074 166.669712 
L 144.520041 183.049517 
L 149.644008 187.162176 
L 154.767975 178.518464 
L 159.891942 164.825838 
L 165.015909 164.467798 
L 170.139876 181.371958 
L 175.263843 162.305464 
L 180.38781 169.920809 
L 185.511777 172.04894 
L 190.635744 178.788029 
L 195.759711 157.561069 
L 200.883678 180.151085 
L 206.007645 164.214647 
L 211.131612 147.333809 
L 216.255579 179.5168 
L 221.379545 167.766793 
L 226.503512 174.44983 
L 231.627479 165.584383 
L 236.751446 173.238736 
L 241.875413 182.67809 
L 246.99938 184.92352 
L 252.123347 167.9491 
L 257.247314 156.021262 
L 262.371281 174.107467 
L 267.495248 151.024836 
L 272.619215 175.781003 
L 277.743182 155.188969 
L 282.867149 160.511354 
L 287.991116 147.565571 
L 293.115083 152.991362 
L 298.23905 170.638584 
L 303.363017 159.734015 
L 308.486983 166.428788 
L 313.61095 153.709456 
L 318.734917 156.735977 
L 323.858884 165.868609 
L 328.982851 145.082148 
L 334.106818 143.740852 
L 339.230785 137.69995 
L 344.354752 145.925849 
L 349.478719 138.992817 
L 354.602686 138.012524 
L 359.726653 144.690153 
L 364.85062 151.911564 
L 369.974587 127.361408 
L 375.098554 137.61343 
L 380.222521 143.799866 
L 385.346488 114.522327 
L 390.470455 138.803895 
L 395.594421 121.836086 
L 400.718388 116.254155 
L 405.842355 123.088776 
L 410.966322 122.844608 
L 416.090289 122.064194 
L 421.214256 126.339788 
L 426.338223 109.301849 
L 431.46219 126.168127 
L 436.586157 131.987207 
L 441.710124 121.515231 
L 446.834091 127.31088 
L 451.958058 106.058797 
L 457.082025 110.085666 
L 462.205992 123.705547 
L 467.329959 121.556531 
L 472.453926 126.227284 
L 477.577893 96.123943 
L 482.70186 100.231169 
L 487.825826 75.917977 
L 492.949793 99.92353 
L 498.07376 101.88805 
L 503.197727 106.404548 
L 508.321694 79.971257 
L 513.445661 95.340953 
L 518.569628 96.801548 
L 523.693595 75.476593 
L 528.817562 97.730659 
L 533.941529 37.566696 
L 539.065496 73.406616 
L 544.189463 100.079592 
L 549.31343 83.924025 
L 554.437397 66.769007 
L 559.561364 84.793899 
" style="fill:none;stroke:#f7b89c;stroke-linecap:square;stroke-width:1.5;"/>
   </g>
   <g id="line2d_19">
    <path clip-path="url(#pc0be45294d)" d="M 52.288636 170.773535 
L 57.412603 178.574586 
L 62.53657 155.527237 
L 67.660537 167.365064 
L 72.784504 164.521108 
L 77.908471 147.809503 
L 83.032438 192.867842 
L 88.156405 172.765826 
L 93.280372 165.307466 
L 98.404339 175.281442 
L 103.528306 133.120656 
L 108.652273 159.254351 
L 113.77624 164.215464 
L 118.900207 153.874734 
L 124.024174 180.858219 
L 129.14814 165.914968 
L 134.272107 160.926381 
L 139.396074 157.546968 
L 144.520041 170.076544 
L 149.644008 147.78447 
L 154.767975 153.170994 
L 159.891942 145.467791 
L 165.015909 141.929914 
L 170.139876 172.896859 
L 175.263843 167.905635 
L 180.38781 159.996601 
L 185.511777 172.83172 
L 190.635744 144.222669 
L 195.759711 163.970264 
L 200.883678 142.158077 
L 206.007645 168.562188 
L 211.131612 161.58594 
L 216.255579 159.967652 
L 221.379545 141.719328 
L 226.503512 165.110719 
L 231.627479 180.418316 
L 236.751446 138.482231 
L 241.875413 152.414051 
L 246.99938 153.654773 
L 252.123347 143.731334 
L 257.247314 149.124345 
L 262.371281 150.587135 
L 267.495248 144.468353 
L 272.619215 134.853801 
L 277.743182 159.834706 
L 282.867149 157.966626 
L 287.991116 147.363752 
L 293.115083 145.93703 
L 298.23905 135.893719 
L 303.363017 151.924627 
L 308.486983 139.503471 
L 313.61095 119.991027 
L 318.734917 138.220342 
L 323.858884 140.829925 
L 328.982851 133.615245 
L 334.106818 126.328484 
L 339.230785 126.916457 
L 344.354752 130.937383 
L 349.478719 140.228876 
L 354.602686 159.243666 
L 359.726653 121.969055 
L 364.85062 117.066586 
L 369.974587 122.444533 
L 375.098554 123.519411 
L 380.222521 120.888711 
L 385.346488 116.717583 
L 390.470455 113.871333 
L 395.594421 134.609476 
L 400.718388 82.317226 
L 405.842355 141.464806 
L 410.966322 116.510433 
L 416.090289 105.613038 
L 421.214256 107.015889 
L 426.338223 101.107713 
L 431.46219 116.961245 
L 436.586157 114.775842 
L 441.710124 113.998578 
L 446.834091 101.124864 
L 451.958058 96.404683 
L 457.082025 90.705012 
L 462.205992 105.261687 
L 467.329959 108.92492 
L 472.453926 106.744183 
L 477.577893 87.584332 
L 482.70186 105.94857 
L 487.825826 82.722673 
L 492.949793 98.787091 
L 498.07376 93.934636 
L 503.197727 86.047115 
L 508.321694 103.414448 
L 513.445661 90.63274 
L 518.569628 74.957744 
L 523.693595 57.770887 
L 528.817562 61.869648 
L 533.941529 65.52055 
L 539.065496 57.98195 
L 544.189463 98.750328 
L 549.31343 42.39645 
L 554.437397 64.559814 
L 559.561364 43.927485 
" style="fill:none;stroke:#f18d6f;stroke-linecap:square;stroke-width:1.5;"/>
   </g>
   <g id="line2d_20">
    <path clip-path="url(#pc0be45294d)" d="M 52.288636 139.665974 
L 57.412603 158.842165 
L 62.53657 153.541101 
L 67.660537 162.70234 
L 72.784504 161.382198 
L 77.908471 167.980853 
L 83.032438 160.62678 
L 88.156405 160.528402 
L 93.280372 158.133472 
L 98.404339 135.609601 
L 103.528306 149.944687 
L 108.652273 158.559174 
L 113.77624 158.416501 
L 118.900207 144.358645 
L 124.024174 166.402778 
L 129.14814 147.435178 
L 134.272107 125.313899 
L 139.396074 150.084458 
L 144.520041 132.191783 
L 149.644008 131.04989 
L 154.767975 142.219644 
L 159.891942 157.989257 
L 165.015909 150.391554 
L 170.139876 151.787738 
L 175.263843 141.496205 
L 180.38781 150.114184 
L 185.511777 132.212506 
L 190.635744 158.589617 
L 195.759711 130.931601 
L 200.883678 131.741468 
L 206.007645 158.227327 
L 211.131612 142.359952 
L 216.255579 133.944606 
L 221.379545 152.3404 
L 226.503512 142.19836 
L 231.627479 136.509249 
L 236.751446 123.771047 
L 241.875413 152.965714 
L 246.99938 122.905128 
L 252.123347 127.877267 
L 257.247314 155.131145 
L 262.371281 118.99477 
L 267.495248 116.422294 
L 272.619215 153.071672 
L 277.743182 164.068242 
L 282.867149 131.645222 
L 287.991116 132.056353 
L 293.115083 126.992345 
L 298.23905 128.087295 
L 303.363017 109.544882 
L 308.486983 108.447278 
L 313.61095 135.508573 
L 318.734917 102.266714 
L 323.858884 135.903246 
L 328.982851 130.069516 
L 334.106818 129.38012 
L 339.230785 129.866402 
L 344.354752 110.516528 
L 349.478719 111.826085 
L 354.602686 128.056149 
L 359.726653 104.720988 
L 364.85062 110.579924 
L 369.974587 103.291388 
L 375.098554 133.136949 
L 380.222521 131.279002 
L 385.346488 123.924255 
L 390.470455 118.975886 
L 395.594421 84.46075 
L 400.718388 126.118718 
L 405.842355 86.599397 
L 410.966322 107.011121 
L 416.090289 107.812344 
L 421.214256 146.630677 
L 426.338223 87.034323 
L 431.46219 88.861479 
L 436.586157 101.473252 
L 441.710124 99.641467 
L 446.834091 107.347978 
L 451.958058 107.951857 
L 457.082025 104.183267 
L 462.205992 71.743504 
L 467.329959 113.572163 
L 472.453926 87.764745 
L 477.577893 67.623049 
L 482.70186 89.207091 
L 487.825826 67.746723 
L 492.949793 99.181948 
L 498.07376 82.631249 
L 503.197727 70.626479 
L 508.321694 70.270656 
L 513.445661 77.440065 
L 518.569628 64.135651 
L 523.693595 81.397224 
L 528.817562 49.298241 
L 533.941529 67.988462 
L 539.065496 80.862486 
L 544.189463 65.094176 
L 549.31343 58.136103 
L 554.437397 43.949494 
L 559.561364 71.13279 
" style="fill:none;stroke:#d95847;stroke-linecap:square;stroke-width:1.5;"/>
   </g>
   <g id="line2d_21">
    <path clip-path="url(#pc0be45294d)" d="M 52.288636 145.296862 
L 57.412603 144.991178 
L 62.53657 149.043926 
L 67.660537 129.354186 
L 72.784504 151.513111 
L 77.908471 147.003923 
L 83.032438 135.068164 
L 88.156405 118.759643 
L 93.280372 128.047054 
L 98.404339 134.38281 
L 103.528306 130.702137 
L 108.652273 144.783403 
L 113.77624 130.61652 
L 118.900207 146.94995 
L 124.024174 147.259986 
L 129.14814 124.367559 
L 134.272107 139.032861 
L 139.396074 131.250663 
L 144.520041 134.265718 
L 149.644008 130.324463 
L 154.767975 136.1995 
L 159.891942 144.898806 
L 165.015909 132.385171 
L 170.139876 139.282152 
L 175.263843 144.286086 
L 180.38781 121.102336 
L 185.511777 123.691304 
L 190.635744 133.146812 
L 195.759711 154.072003 
L 200.883678 139.225498 
L 206.007645 128.988334 
L 211.131612 120.235803 
L 216.255579 106.451698 
L 221.379545 134.798764 
L 226.503512 120.355571 
L 231.627479 118.343998 
L 236.751446 131.645227 
L 241.875413 120.22151 
L 246.99938 128.343832 
L 252.123347 118.17917 
L 257.247314 106.79693 
L 262.371281 133.33243 
L 267.495248 117.425758 
L 272.619215 113.759693 
L 277.743182 124.95447 
L 282.867149 95.91918 
L 287.991116 106.680424 
L 293.115083 127.502412 
L 298.23905 121.454969 
L 303.363017 126.016409 
L 308.486983 121.858351 
L 313.61095 99.817023 
L 318.734917 125.52567 
L 323.858884 112.464739 
L 328.982851 121.061176 
L 334.106818 94.04146 
L 339.230785 117.866247 
L 344.354752 107.849171 
L 349.478719 104.031422 
L 354.602686 119.416462 
L 359.726653 121.502153 
L 364.85062 98.020536 
L 369.974587 87.184245 
L 375.098554 110.253786 
L 380.222521 88.984407 
L 385.346488 104.231344 
L 390.470455 83.175961 
L 395.594421 95.547057 
L 400.718388 91.892249 
L 405.842355 73.299554 
L 410.966322 99.836399 
L 416.090289 81.939933 
L 421.214256 104.464637 
L 426.338223 87.887951 
L 431.46219 91.34981 
L 436.586157 99.328367 
L 441.710124 92.138125 
L 446.834091 78.544757 
L 451.958058 96.773708 
L 457.082025 66.261269 
L 462.205992 77.002845 
L 467.329959 53.094749 
L 472.453926 83.686202 
L 477.577893 74.920206 
L 482.70186 72.822486 
L 487.825826 69.714848 
L 492.949793 75.701037 
L 498.07376 86.891399 
L 503.197727 69.308402 
L 508.321694 68.177038 
L 513.445661 80.166168 
L 518.569628 58.68935 
L 523.693595 49.602425 
L 528.817562 50.747385 
L 533.941529 38.934719 
L 539.065496 53.393561 
L 544.189463 51.876181 
L 549.31343 19.554545 
L 554.437397 43.523048 
L 559.561364 35.456692 
" style="fill:none;stroke:#b40426;stroke-linecap:square;stroke-width:1.5;"/>
   </g>
   <g id="patch_3">
    <path d="M 26.925 279 
L 26.925 7.2 
" style="fill:none;stroke:#000000;stroke-linecap:square;stroke-linejoin:miter;stroke-width:0.8;"/>
   </g>
   <g id="patch_4">
    <path d="M 584.925 279 
L 584.925 7.2 
" style="fill:none;stroke:#000000;stroke-linecap:square;stroke-linejoin:miter;stroke-width:0.8;"/>
   </g>
   <g id="patch_5">
    <path d="M 26.925 279 
L 584.925 279 
" style="fill:none;stroke:#000000;stroke-linecap:square;stroke-linejoin:miter;stroke-width:0.8;"/>
   </g>
   <g id="patch_6">
    <path d="M 26.925 7.2 
L 584.925 7.2 
" style="fill:none;stroke:#000000;stroke-linecap:square;stroke-linejoin:miter;stroke-width:0.8;"/>
   </g>
   <g id="legend_1">
    <g id="patch_7">
     <path d="M 33.925 59.234375 
L 105.910938 59.234375 
Q 107.910938 59.234375 107.910938 57.234375 
L 107.910938 14.2 
Q 107.910938 12.2 105.910938 12.2 
L 33.925 12.2 
Q 31.925 12.2 31.925 14.2 
L 31.925 57.234375 
Q 31.925 59.234375 33.925 59.234375 
z
" style="fill:#ffffff;opacity:0.8;stroke:#cccccc;stroke-linejoin:miter;"/>
    </g>
    <g id="line2d_22">
     <path d="M 35.925 20.298437 
L 55.925 20.298437 
" style="fill:none;stroke:#3b4cc0;stroke-linecap:square;stroke-width:4;"/>
    </g>
    <g id="line2d_23"/>
    <g id="text_12">
     <!-- Cold -->
     <g transform="translate(63.925 23.798437)scale(0.1 -0.1)">
      <defs>
       <path d="M 64.40625 67.28125 
L 64.40625 56.890625 
Q 59.421875 61.53125 53.78125 63.8125 
Q 48.140625 66.109375 41.796875 66.109375 
Q 29.296875 66.109375 22.65625 58.46875 
Q 16.015625 50.828125 16.015625 36.375 
Q 16.015625 21.96875 22.65625 14.328125 
Q 29.296875 6.6875 41.796875 6.6875 
Q 48.140625 6.6875 53.78125 8.984375 
Q 59.421875 11.28125 64.40625 15.921875 
L 64.40625 5.609375 
Q 59.234375 2.09375 53.4375 0.328125 
Q 47.65625 -1.421875 41.21875 -1.421875 
Q 24.65625 -1.421875 15.125 8.703125 
Q 5.609375 18.84375 5.609375 36.375 
Q 5.609375 53.953125 15.125 64.078125 
Q 24.65625 74.21875 41.21875 74.21875 
Q 47.75 74.21875 53.53125 72.484375 
Q 59.328125 70.75 64.40625 67.28125 
z
" id="DejaVuSans-67"/>
       <path d="M 30.609375 48.390625 
Q 23.390625 48.390625 19.1875 42.75 
Q 14.984375 37.109375 14.984375 27.296875 
Q 14.984375 17.484375 19.15625 11.84375 
Q 23.34375 6.203125 30.609375 6.203125 
Q 37.796875 6.203125 41.984375 11.859375 
Q 46.1875 17.53125 46.1875 27.296875 
Q 46.1875 37.015625 41.984375 42.703125 
Q 37.796875 48.390625 30.609375 48.390625 
z
M 30.609375 56 
Q 42.328125 56 49.015625 48.375 
Q 55.71875 40.765625 55.71875 27.296875 
Q 55.71875 13.875 49.015625 6.21875 
Q 42.328125 -1.421875 30.609375 -1.421875 
Q 18.84375 -1.421875 12.171875 6.21875 
Q 5.515625 13.875 5.515625 27.296875 
Q 5.515625 40.765625 12.171875 48.375 
Q 18.84375 56 30.609375 56 
z
" id="DejaVuSans-111"/>
       <path d="M 9.421875 75.984375 
L 18.40625 75.984375 
L 18.40625 0 
L 9.421875 0 
z
" id="DejaVuSans-108"/>
       <path d="M 45.40625 46.390625 
L 45.40625 75.984375 
L 54.390625 75.984375 
L 54.390625 0 
L 45.40625 0 
L 45.40625 8.203125 
Q 42.578125 3.328125 38.25 0.953125 
Q 33.9375 -1.421875 27.875 -1.421875 
Q 17.96875 -1.421875 11.734375 6.484375 
Q 5.515625 14.40625 5.515625 27.296875 
Q 5.515625 40.1875 11.734375 48.09375 
Q 17.96875 56 27.875 56 
Q 33.9375 56 38.25 53.625 
Q 42.578125 51.265625 45.40625 46.390625 
z
M 14.796875 27.296875 
Q 14.796875 17.390625 18.875 11.75 
Q 22.953125 6.109375 30.078125 6.109375 
Q 37.203125 6.109375 41.296875 11.75 
Q 45.40625 17.390625 45.40625 27.296875 
Q 45.40625 37.203125 41.296875 42.84375 
Q 37.203125 48.484375 30.078125 48.484375 
Q 22.953125 48.484375 18.875 42.84375 
Q 14.796875 37.203125 14.796875 27.296875 
z
" id="DejaVuSans-100"/>
      </defs>
      <use xlink:href="#DejaVuSans-67"/>
      <use x="69.824219" xlink:href="#DejaVuSans-111"/>
      <use x="131.005859" xlink:href="#DejaVuSans-108"/>
      <use x="158.789062" xlink:href="#DejaVuSans-100"/>
     </g>
    </g>
    <g id="line2d_24">
     <path d="M 35.925 34.976562 
L 55.925 34.976562 
" style="fill:none;stroke:#dddcdc;stroke-linecap:square;stroke-width:4;"/>
    </g>
    <g id="line2d_25"/>
    <g id="text_13">
     <!-- Medium -->
     <g transform="translate(63.925 38.476562)scale(0.1 -0.1)">
      <defs>
       <path d="M 9.8125 72.90625 
L 24.515625 72.90625 
L 43.109375 23.296875 
L 61.8125 72.90625 
L 76.515625 72.90625 
L 76.515625 0 
L 66.890625 0 
L 66.890625 64.015625 
L 48.09375 14.015625 
L 38.1875 14.015625 
L 19.390625 64.015625 
L 19.390625 0 
L 9.8125 0 
z
" id="DejaVuSans-77"/>
       <path d="M 56.203125 29.59375 
L 56.203125 25.203125 
L 14.890625 25.203125 
Q 15.484375 15.921875 20.484375 11.0625 
Q 25.484375 6.203125 34.421875 6.203125 
Q 39.59375 6.203125 44.453125 7.46875 
Q 49.3125 8.734375 54.109375 11.28125 
L 54.109375 2.78125 
Q 49.265625 0.734375 44.1875 -0.34375 
Q 39.109375 -1.421875 33.890625 -1.421875 
Q 20.796875 -1.421875 13.15625 6.1875 
Q 5.515625 13.8125 5.515625 26.8125 
Q 5.515625 40.234375 12.765625 48.109375 
Q 20.015625 56 32.328125 56 
Q 43.359375 56 49.78125 48.890625 
Q 56.203125 41.796875 56.203125 29.59375 
z
M 47.21875 32.234375 
Q 47.125 39.59375 43.09375 43.984375 
Q 39.0625 48.390625 32.421875 48.390625 
Q 24.90625 48.390625 20.390625 44.140625 
Q 15.875 39.890625 15.1875 32.171875 
z
" id="DejaVuSans-101"/>
       <path d="M 9.421875 54.6875 
L 18.40625 54.6875 
L 18.40625 0 
L 9.421875 0 
z
M 9.421875 75.984375 
L 18.40625 75.984375 
L 18.40625 64.59375 
L 9.421875 64.59375 
z
" id="DejaVuSans-105"/>
       <path d="M 8.5 21.578125 
L 8.5 54.6875 
L 17.484375 54.6875 
L 17.484375 21.921875 
Q 17.484375 14.15625 20.5 10.265625 
Q 23.53125 6.390625 29.59375 6.390625 
Q 36.859375 6.390625 41.078125 11.03125 
Q 45.3125 15.671875 45.3125 23.6875 
L 45.3125 54.6875 
L 54.296875 54.6875 
L 54.296875 0 
L 45.3125 0 
L 45.3125 8.40625 
Q 42.046875 3.421875 37.71875 1 
Q 33.40625 -1.421875 27.6875 -1.421875 
Q 18.265625 -1.421875 13.375 4.4375 
Q 8.5 10.296875 8.5 21.578125 
z
M 31.109375 56 
z
" id="DejaVuSans-117"/>
       <path d="M 52 44.1875 
Q 55.375 50.25 60.0625 53.125 
Q 64.75 56 71.09375 56 
Q 79.640625 56 84.28125 50.015625 
Q 88.921875 44.046875 88.921875 33.015625 
L 88.921875 0 
L 79.890625 0 
L 79.890625 32.71875 
Q 79.890625 40.578125 77.09375 44.375 
Q 74.3125 48.1875 68.609375 48.1875 
Q 61.625 48.1875 57.5625 43.546875 
Q 53.515625 38.921875 53.515625 30.90625 
L 53.515625 0 
L 44.484375 0 
L 44.484375 32.71875 
Q 44.484375 40.625 41.703125 44.40625 
Q 38.921875 48.1875 33.109375 48.1875 
Q 26.21875 48.1875 22.15625 43.53125 
Q 18.109375 38.875 18.109375 30.90625 
L 18.109375 0 
L 9.078125 0 
L 9.078125 54.6875 
L 18.109375 54.6875 
L 18.109375 46.1875 
Q 21.1875 51.21875 25.484375 53.609375 
Q 29.78125 56 35.6875 56 
Q 41.65625 56 45.828125 52.96875 
Q 50 49.953125 52 44.1875 
z
" id="DejaVuSans-109"/>
      </defs>
      <use xlink:href="#DejaVuSans-77"/>
      <use x="86.279297" xlink:href="#DejaVuSans-101"/>
      <use x="147.802734" xlink:href="#DejaVuSans-100"/>
      <use x="211.279297" xlink:href="#DejaVuSans-105"/>
      <use x="239.0625" xlink:href="#DejaVuSans-117"/>
      <use x="302.441406" xlink:href="#DejaVuSans-109"/>
     </g>
    </g>
    <g id="line2d_26">
     <path d="M 35.925 49.654687 
L 55.925 49.654687 
" style="fill:none;stroke:#b40426;stroke-linecap:square;stroke-width:4;"/>
    </g>
    <g id="line2d_27"/>
    <g id="text_14">
     <!-- Hot -->
     <g transform="translate(63.925 53.154687)scale(0.1 -0.1)">
      <defs>
       <path d="M 9.8125 72.90625 
L 19.671875 72.90625 
L 19.671875 43.015625 
L 55.515625 43.015625 
L 55.515625 72.90625 
L 65.375 72.90625 
L 65.375 0 
L 55.515625 0 
L 55.515625 34.71875 
L 19.671875 34.71875 
L 19.671875 0 
L 9.8125 0 
z
" id="DejaVuSans-72"/>
       <path d="M 18.3125 70.21875 
L 18.3125 54.6875 
L 36.8125 54.6875 
L 36.8125 47.703125 
L 18.3125 47.703125 
L 18.3125 18.015625 
Q 18.3125 11.328125 20.140625 9.421875 
Q 21.96875 7.515625 27.59375 7.515625 
L 36.8125 7.515625 
L 36.8125 0 
L 27.59375 0 
Q 17.1875 0 13.234375 3.875 
Q 9.28125 7.765625 9.28125 18.015625 
L 9.28125 47.703125 
L 2.6875 47.703125 
L 2.6875 54.6875 
L 9.28125 54.6875 
L 9.28125 70.21875 
z
" id="DejaVuSans-116"/>
      </defs>
      <use xlink:href="#DejaVuSans-72"/>
      <use x="75.195312" xlink:href="#DejaVuSans-111"/>
      <use x="136.376953" xlink:href="#DejaVuSans-116"/>
     </g>
    </g>
   </g>
  </g>
 </g>
 <defs>
  <clipPath id="pc0be45294d">
   <rect height="271.8" width="558" x="26.925" y="7.2"/>
  </clipPath>
 </defs>
</svg>
